# xmcd CD database file
#
# Track frame offsets:
#	150
#	20342
#	38790
#	63510
#	78256
#	94061
#	117707
#	139571
#	171263
#	190169
#	212895
#	237156
#	262706
#	277499
#
# Disc length: 3990 seconds
#
# Revision: 5
# Processed by: cddbd v1.5.1PL2 Copyright (c) Steve Scherf et al.
# Submitted via: CDex 1.51
#
DISCID=c30f900e,c70f940e
DTITLE=Drive By Truckers - Pizza Deliverance
DYEAR=1999
DGENRE=Cowpunk
TTITLE0=Bulldozers and Dirt
TTITLE1=Nine Bullets
TTITLE2=Uncle Frank
TTITLE3=Too Much Sex (Too Little Jesus)
TTITLE4=Box of Spiders
TTITLE5=One of These Days
TTITLE6=Margo and Harold
TTITLE7=The Company I Keep
TTITLE8=The President's Penis is Missing
TTITLE9=Tales Facing Up
TTITLE10=Love Like This
TTITLE11=Mrs. Dubose
TTITLE12=Zoloft
TTITLE13=The Night G.G. Allin Came To Town
EXTD=YEAR: 1999
EXTT0=
EXTT1=
EXTT2=
EXTT3=
EXTT4=
EXTT5=
EXTT6=
EXTT7=
EXTT8=
EXTT9=
EXTT10=
EXTT11=
EXTT12=
EXTT13=
PLAYORDER=
